<svg id="Layer_1" data-name="Layer 1" xmlns="http://www.w3.org/2000/svg" viewBox="0 0 216 41.3"><defs><style>.cls-1,.cls-2{fill:#231f20;}.cls-2{stroke:#231f20;stroke-miterlimit:10;stroke-width:0.65px;}</style></defs><title>Talent Bank and Talent Mine Logos</title><path class="cls-1" d="M18.63,14.24h-6.1V10H29.79v4.23H23.68v18H18.63Z"/><path class="cls-1" d="M36,10h6l7,22.24H43.71L42.34,27H35.55l-1.36,5.29H29.07Zm.55,13h4.74L40.81,21c-.62-2.21-1.23-4.84-1.81-7.16h-.14c-.54,2.35-1.12,5-1.74,7.16Z"/><path class="cls-1" d="M51.45,10h5V28h8.8v4.23H51.45Z"/><path class="cls-1" d="M69.13,10H83.05v4.23H74.14v4.47h7.57V22.9H74.14V28h9.25v4.23H69.13Z"/><path class="cls-1" d="M87.82,10H93l5.8,11L101,26h.13c-.2-2.35-.61-5.49-.61-8.12V10h4.77V32.25H100.1L94.3,21.16l-2.18-4.84H92c.21,2.46.62,5.42.62,8.05v7.88H87.82Z"/><path class="cls-1" d="M114.84,14.24h-6.11V10H126v4.23h-6.11v18h-5Z"/><path class="cls-2" d="M130.26,9.74H132l4.84,13.64,1.84,5.12h.14c.61-1.71,1.16-3.41,1.77-5.12l4.85-13.64h1.77V32.25h-1.09V16.56c0-1.78.07-4,.14-5.87h-.14l-1.74,5-5.08,14.06h-1.16l-5.12-14.06-1.77-5h-.14c.07,1.84.14,4.09.14,5.87V32.25h-1Z"/><path class="cls-2" d="M154.08,9.74h1.09V32.25h-1.09Z"/><path class="cls-2" d="M162,9.74h1.16l10,16.51,2.6,4.43h.13c-.07-2.18-.13-4.23-.13-6.34V9.74h1V32.25h-1.16l-10-16.51L163,11.3h-.13c.07,2.12.13,4,.13,6.15v14.8h-1Z"/><path class="cls-2" d="M182.55,9.74h12.08v.95h-11v9.08h9.22v.95h-9.22V31.3H195v.95H182.55Z"/><path class="cls-1" d="M201,27.28a2.56,2.56,0,0,1,1.24.33,2.4,2.4,0,0,1,.94.93,2.55,2.55,0,0,1,0,2.51,2.31,2.31,0,0,1-.93.93,2.54,2.54,0,0,1-1.25.33,2.57,2.57,0,0,1-1.25-.33,2.31,2.31,0,0,1-.93-.93,2.57,2.57,0,0,1-.33-1.25,2.49,2.49,0,0,1,.34-1.26,2.28,2.28,0,0,1,.94-.93A2.52,2.52,0,0,1,201,27.28Zm0,.42a2.14,2.14,0,0,0-1,.27,1.89,1.89,0,0,0-.78.78,2.1,2.1,0,0,0-.29,1.05,2.06,2.06,0,0,0,.28,1,2.09,2.09,0,0,0,.78.78,2.07,2.07,0,0,0,2.08,0,2,2,0,0,0,.78-.78,2.06,2.06,0,0,0,.28-1,2.2,2.2,0,0,0-.28-1.05A1.91,1.91,0,0,0,202,28,2.14,2.14,0,0,0,201,27.7Zm-1.1,3.49V28.48h.93a2.22,2.22,0,0,1,.69.08.69.69,0,0,1,.46.66.71.71,0,0,1-.21.51.83.83,0,0,1-.56.25.82.82,0,0,1,.23.14,3.41,3.41,0,0,1,.4.54l.33.53h-.53l-.24-.43a2.28,2.28,0,0,0-.46-.63.56.56,0,0,0-.35-.09h-.25v1.15Zm.44-1.52h.53a.79.79,0,0,0,.51-.12.36.36,0,0,0,.14-.3.31.31,0,0,0-.07-.21.37.37,0,0,0-.18-.14,1.37,1.37,0,0,0-.44,0h-.49Z"/></svg>